<svg width="19" height="19" viewBox="0 0 19 19" fill="none" xmlns="http://www.w3.org/2000/svg">
<g clip-path="url(#clip0_2_205)">
<path d="M17.6287 3.06586V7.66466M17.6287 7.66466H13.0299M17.6287 7.66466L14.0723 4.32287C13.2486 3.4987 12.2295 2.89663 11.1101 2.57285C9.99071 2.24907 8.80756 2.21413 7.67102 2.47128C6.53449 2.72844 5.48162 3.26931 4.61066 4.04343C3.7397 4.81755 3.07903 5.79969 2.6903 6.8982M0.766469 15.3293V10.7305M0.766469 10.7305H5.36527M0.766469 10.7305L4.32288 14.0723C5.14663 14.8965 6.16575 15.4986 7.28513 15.8223C8.4045 16.1461 9.58766 16.1811 10.7242 15.9239C11.8607 15.6668 12.9136 15.1259 13.7846 14.3518C14.6555 13.5776 15.3162 12.5955 15.7049 11.497" stroke="#4E633E" stroke-width="2.5" stroke-linecap="round" stroke-linejoin="round"/>
</g>
<defs>
<clipPath id="clip0_2_205">
<rect width="18.3952" height="18.3952" fill="white" transform="matrix(-1 0 0 1 18.3952 0)"/>
</clipPath>
</defs>
</svg>
